<?xml version="1.0" encoding="utf-8"?>
<!-- Generator: Adobe Illustrator 24.0.0, SVG Export Plug-In . SVG Version: 6.00 Build 0)  -->
<svg version="1.1" id="Layer_1" xmlns="http://www.w3.org/2000/svg" xmlns:xlink="http://www.w3.org/1999/xlink" x="0px" y="0px"
	 viewBox="0 0 360 360" style="enable-background:new 0 0 360 360;" xml:space="preserve">
<style type="text/css">
	.st0{fill:#265B5B;}
	.st1{fill:#F26539;}
</style>
<rect class="st0" width="360" height="360"/>
<g>
	<path class="st1" d="M123.26,132.2v26.16h-15.1l-0.81-10.99H89.28v69.17l10.52,2.02v11.8H59.08v-11.8l10.52-2.02v-69.17h-18
		l-0.81,10.99H35.76V132.2H123.26z"/>
	<path class="st1" d="M129.67,144.07V132.2h40.65v11.86l-10.52,2.02v28.31h40.04v-28.31l-10.52-2.02V132.2h10.52h19.62h10.52v11.86
		l-10.52,2.02v70.45l10.52,2.02v11.8h-40.65v-11.8l10.52-2.02v-26.97H159.8v26.97l10.52,2.02v11.8h-40.65v-11.8l10.45-2.02v-70.45
		L129.67,144.07z"/>
	<path class="st1" d="M281.75,132.2c12,0,21.89,3.83,29.66,11.49c7.77,7.66,11.66,17.49,11.66,29.49v16.25
		c0,12.04-3.89,21.88-11.66,29.49c-7.78,7.62-17.66,11.43-29.66,11.43h-44.16v-11.8l10.45-2.02v-70.45l-10.45-2.02V132.2h10.45
		H281.75z M267.73,147.37v67.89h13.01c7.05,0,12.58-2.38,16.58-7.15c4-4.76,6-10.99,6-18.67v-16.38c0-7.59-2-13.77-6-18.54
		c-4-4.76-9.53-7.15-16.58-7.15H267.73z"/>
</g>
</svg>
