<?xml version="1.0" encoding="utf-8"?>
<!-- Generator: Adobe Illustrator 24.0.0, SVG Export Plug-In . SVG Version: 6.00 Build 0)  -->
<svg version="1.1" id="Layer_1" xmlns="http://www.w3.org/2000/svg" xmlns:xlink="http://www.w3.org/1999/xlink" x="0px" y="0px"
	 viewBox="0 0 616 45.4" style="enable-background:new 0 0 616 45.4;" xml:space="preserve">
<style type="text/css">
	.st0{fill:#F26539;}
	.st1{fill:#FFFFFF;}
</style>
<g>
	<path class="st0" d="M39.4,0.6v11.8h-6.8l-0.4-4.9h-8.1v31.1l4.7,0.9v5.3H10.5v-5.3l4.7-0.9V7.5H7.1l-0.4,4.9H0V0.6H39.4z"/>
	<path class="st0" d="M81.3,23.1c0,6.5-1.9,11.8-5.6,16c-3.7,4.2-8.5,6.3-14.5,6.3c-6,0-10.8-2.1-14.5-6.3c-3.7-4.2-5.5-9.6-5.5-16
		v-0.7c0-6.4,1.8-11.8,5.5-16C50.4,2.1,55.2,0,61.2,0c6,0,10.8,2.1,14.5,6.4c3.7,4.2,5.6,9.6,5.6,16V23.1z M72.5,22.3
		c0-4.6-1-8.3-2.9-11.1c-1.9-2.9-4.7-4.3-8.4-4.3c-3.7,0-6.5,1.4-8.3,4.2s-2.7,6.6-2.7,11.2v0.7c0,4.7,0.9,8.4,2.8,11.2
		s4.6,4.3,8.3,4.3c3.7,0,6.6-1.4,8.4-4.3s2.8-6.6,2.8-11.2V22.3z"/>
	<path class="st0" d="M125.8,12.1l-0.2,0l-11.8,32.7h-5.9L96,12.2l-0.2,0l0.8,19.4v6.9l4.7,0.9v5.3H83.2v-5.3l4.7-0.9V6.9L83.2,6
		V0.6h4.7h11.6l11.3,32.5h0.2l11.3-32.5h16.3V6l-4.7,0.9v31.7l4.7,0.9v5.3h-18.3v-5.3l4.7-0.9v-6.9L125.8,12.1z"/>
	<path class="st0" d="M156.9,6V0.6h18.3V6l-4.7,0.9v12.7h18V6.9L183.7,6V0.6h4.7h8.8h4.7V6l-4.7,0.9v31.7l4.7,0.9v5.3h-18.3v-5.3
		l4.7-0.9V26.4h-18v12.1l4.7,0.9v5.3h-18.3v-5.3l4.7-0.9V6.9L156.9,6z"/>
	<path class="st0" d="M240.5,0.6c5.4,0,9.8,1.7,13.3,5.2s5.2,7.9,5.2,13.3v7.3c0,5.4-1.7,9.8-5.2,13.3c-3.5,3.4-7.9,5.1-13.3,5.1
		h-19.9v-5.3l4.7-0.9V6.9L220.7,6V0.6h4.7H240.5z M234.2,7.5V38h5.9c3.2,0,5.7-1.1,7.5-3.2c1.8-2.1,2.7-4.9,2.7-8.4V19
		c0-3.4-0.9-6.2-2.7-8.3c-1.8-2.1-4.3-3.2-7.5-3.2H234.2z"/>
	<path class="st0" d="M290.3,25.4h-15V38h14.3l0.4-5.3h6.7v12.1h-34.9v-5.3l4.7-0.9V6.9L261.8,6V0.6h4.7h30.2v12.1h-6.8l-0.4-5.3
		h-14.1v11.1h15V25.4z"/>
	<path class="st0" d="M334.1,14.7h-6.6l-1.2-6.1c-0.8-0.5-1.9-0.9-3.4-1.3c-1.5-0.4-3-0.5-4.7-0.5c-2.4,0-4.3,0.5-5.6,1.5
		c-1.3,1-2,2.3-2,4c0,1.5,0.7,2.7,2.1,3.7c1.4,1,3.8,2,7.2,3c4.9,1.4,8.6,3.1,11.1,5.4c2.5,2.2,3.8,5.1,3.8,8.8
		c0,3.8-1.5,6.8-4.5,8.9s-6.9,3.3-11.8,3.3c-3.5,0-6.7-0.6-9.5-1.7c-2.8-1.1-5.2-2.6-7.1-4.6v-9.2h6.9l0.9,6.3
		c0.9,0.7,2.1,1.3,3.6,1.8c1.5,0.5,3.2,0.7,5.1,0.7c2.4,0,4.3-0.5,5.5-1.5s1.9-2.3,1.9-4c0-1.7-0.6-3.1-1.8-4.1
		c-1.2-1-3.3-2-6.3-2.9c-5.2-1.5-9.2-3.3-11.9-5.4c-2.7-2.1-4-4.9-4-8.6c0-3.6,1.5-6.5,4.5-8.8c3-2.3,6.8-3.4,11.4-3.5
		c3.4,0,6.5,0.5,9.3,1.5c2.8,1,5.1,2.4,7,4.1V14.7z"/>
	<path class="st0" d="M337.2,6V0.6h18.3V6l-4.7,0.9v31.7l4.7,0.9v5.3h-18.3v-5.3l4.7-0.9V6.9L337.2,6z"/>
	<path class="st0" d="M394.1,39.9c-1.4,1.4-3.5,2.7-6.3,3.8c-2.8,1.1-6.2,1.7-10.4,1.7c-6,0-10.8-2-14.6-6c-3.7-4-5.6-9.2-5.6-15.6
		v-1.5c0-6.6,1.8-12,5.5-16.1c3.7-4.1,8.5-6.2,14.5-6.2c3.5,0,6.6,0.6,9.5,1.7c2.9,1.1,5.2,2.6,7.1,4.5V15h-6.6L386,9.1
		c-0.8-0.7-1.9-1.2-3.2-1.7c-1.3-0.4-2.8-0.6-4.6-0.6c-3.9,0-6.9,1.4-9,4.3c-2.1,2.9-3.2,6.6-3.2,11.2v1.6c0,4.5,1.1,8.1,3.2,10.8
		c2.1,2.7,5.1,4,9.1,4c1.8,0,3.2-0.2,4.3-0.5c1.1-0.3,2-0.7,2.6-1.1v-7.5l-6.3-0.5v-6.2h15.2V39.9z"/>
	<path class="st0" d="M442.8,0.6V6l-4.7,0.9v37.9h-8.8l-17.8-29.7l-0.2,0v23.5l4.7,0.9v5.3h-18.3v-5.3l4.7-0.9V6.9L397.7,6V0.6h4.7
		h8.9l17.8,29.7l0.2,0V6.9L424.5,6V0.6h13.6H442.8z"/>
	<path class="st1" d="M480.5,0.6c5.2,0,9.3,1,12.2,3c2.9,2,4.4,5,4.4,9.1c0,2-0.5,3.9-1.6,5.5c-1.1,1.6-2.7,2.8-4.7,3.6
		c2.6,0.6,4.6,1.8,6,3.6s2,4,2,6.5c0,4.2-1.4,7.4-4.2,9.6c-2.8,2.2-6.7,3.3-11.9,3.3h-21.7v-5.3l4.7-0.9V6.9L460.9,6V0.6h4.7H480.5z
		 M474.4,19.1h6.4c2.4,0,4.2-0.5,5.5-1.5s1.9-2.4,1.9-4.2c0-2-0.6-3.5-1.9-4.5c-1.3-1-3.2-1.5-5.7-1.5h-6.1V19.1z M474.4,25.3V38
		h8.2c2.3,0,4.1-0.5,5.4-1.5c1.2-1,1.9-2.5,1.9-4.5c0-2.2-0.5-3.8-1.6-5c-1.1-1.1-2.7-1.7-5-1.7H474.4z"/>
	<path class="st1" d="M500.8,44.8v-5.3l4.7-0.9V6.9L500.8,6V0.6h4.7h8.9h4.7V6l-4.7,0.9V38h12.5l0.4-5.5h6.8v12.3H500.8z"/>
	<path class="st1" d="M576.2,23.1c0,6.5-1.8,11.8-5.5,16c-3.7,4.2-8.5,6.3-14.5,6.3c-6,0-10.8-2.1-14.5-6.3c-3.7-4.2-5.5-9.6-5.5-16
		v-0.7c0-6.4,1.8-11.8,5.5-16c3.7-4.2,8.5-6.4,14.4-6.4c6,0,10.8,2.1,14.5,6.4c3.7,4.2,5.6,9.6,5.6,16V23.1z M567.4,22.3
		c0-4.6-1-8.3-2.9-11.1c-1.9-2.9-4.7-4.3-8.4-4.3c-3.7,0-6.5,1.4-8.3,4.2s-2.7,6.6-2.7,11.2v0.7c0,4.7,0.9,8.4,2.8,11.2
		c1.9,2.8,4.6,4.3,8.3,4.3c3.7,0,6.6-1.4,8.4-4.3c1.9-2.8,2.8-6.6,2.8-11.2V22.3z"/>
	<path class="st1" d="M616,39.9c-1.4,1.4-3.5,2.7-6.3,3.8c-2.8,1.1-6.2,1.7-10.4,1.7c-6,0-10.8-2-14.6-6c-3.7-4-5.6-9.2-5.6-15.6
		v-1.5c0-6.6,1.8-12,5.5-16.1c3.7-4.1,8.5-6.2,14.5-6.2c3.5,0,6.6,0.6,9.5,1.7c2.9,1.1,5.2,2.6,7.1,4.5V15h-6.6L608,9.1
		c-0.8-0.7-1.9-1.2-3.2-1.7c-1.3-0.4-2.8-0.6-4.6-0.6c-3.9,0-6.9,1.4-9,4.3c-2.1,2.9-3.2,6.6-3.2,11.2v1.6c0,4.5,1.1,8.1,3.2,10.8
		c2.1,2.7,5.1,4,9.1,4c1.8,0,3.2-0.2,4.3-0.5c1.1-0.3,2-0.7,2.6-1.1v-7.5l-6.3-0.5v-6.2H616V39.9z"/>
</g>
</svg>
